<svg width="64" height="64" viewBox="0 0 64 64" version="1.1" xmlns="http://www.w3.org/2000/svg" xmlns:xlink="http://www.w3.org/1999/xlink">
<title>Frame 4</title>
<desc>Created using Figma</desc>
<g id="Canvas" transform="matrix(4 0 0 4 -1088 -160)">
<clipPath id="clip-0" clip-rule="evenodd">
<path d="M 272 40L 288 40L 288 56L 272 56L 272 40Z" fill="#FFFFFF"/>
</clipPath>
<g id="Frame 4" clip-path="url(#clip-0)">
<path d="M 272 40L 288 40L 288 56L 272 56L 272 40Z" fill="#FFFFFF"/>
<g id="b64">
<use xlink:href="#path0_fill" transform="translate(273.367 45)"/>
<use xlink:href="#path1_fill" transform="translate(273.367 45)"/>
<use xlink:href="#path2_fill" transform="translate(273.367 45)"/>
</g>
</g>
</g>
<defs>
<path id="path0_fill" d="M 3.78516 3.92969C 3.78516 4.24479 3.75 4.53385 3.67969 4.79688C 3.61198 5.0599 3.50911 5.28646 3.37109 5.47656C 3.23307 5.66667 3.0612 5.8151 2.85547 5.92188C 2.64974 6.02604 2.41016 6.07812 2.13672 6.07812C 1.88932 6.07812 1.67448 6.03255 1.49219 5.94141C 1.3125 5.84766 1.15755 5.71745 1.02734 5.55078L 0.976562 6L 0 6L 0 0L 1.08594 0L 1.08594 2.15625C 1.21094 2.01042 1.35807 1.89714 1.52734 1.81641C 1.69922 1.73568 1.89974 1.69531 2.12891 1.69531C 2.40495 1.69531 2.64583 1.7487 2.85156 1.85547C 3.0599 1.96224 3.23307 2.11068 3.37109 2.30078C 3.50911 2.49089 3.61198 2.71875 3.67969 2.98438C 3.75 3.2474 3.78516 3.53516 3.78516 3.84766L 3.78516 3.92969ZM 2.69922 3.84766C 2.69922 3.67578 2.6862 3.51302 2.66016 3.35938C 2.63411 3.20573 2.58854 3.07161 2.52344 2.95703C 2.46094 2.83984 2.375 2.7474 2.26562 2.67969C 2.15625 2.61198 2.01953 2.57812 1.85547 2.57812C 1.65755 2.57812 1.49609 2.61979 1.37109 2.70312C 1.2487 2.78646 1.15365 2.90104 1.08594 3.04688L 1.08594 4.73047C 1.15365 4.8763 1.2487 4.99089 1.37109 5.07422C 1.49609 5.15755 1.66016 5.19922 1.86328 5.19922C 2.02734 5.19922 2.16276 5.16797 2.26953 5.10547C 2.3763 5.04036 2.46094 4.95182 2.52344 4.83984C 2.58854 4.72526 2.63411 4.59115 2.66016 4.4375C 2.6862 4.28125 2.69922 4.11198 2.69922 3.92969L 2.69922 3.84766Z"/>
<path id="path1_fill" d="M 7.66406 0.265625L 7.66406 1.16797L 7.60156 1.16797C 7.3151 1.16797 7.0612 1.20573 6.83984 1.28125C 6.62109 1.35677 6.43359 1.46354 6.27734 1.60156C 6.1237 1.73958 6.0013 1.90495 5.91016 2.09766C 5.82161 2.29036 5.76562 2.50521 5.74219 2.74219C 5.80208 2.67708 5.87109 2.61328 5.94922 2.55078C 6.02734 2.48568 6.11458 2.42839 6.21094 2.37891C 6.3099 2.32682 6.41667 2.28516 6.53125 2.25391C 6.64583 2.22266 6.76953 2.20703 6.90234 2.20703C 7.17318 2.20703 7.40885 2.25911 7.60938 2.36328C 7.8125 2.46484 7.98177 2.60417 8.11719 2.78125C 8.2526 2.95573 8.35286 3.16016 8.41797 3.39453C 8.48568 3.6263 8.51953 3.87109 8.51953 4.12891C 8.51953 4.40495 8.47526 4.66146 8.38672 4.89844C 8.29818 5.13542 8.17188 5.34115 8.00781 5.51562C 7.84375 5.6901 7.64453 5.82812 7.41016 5.92969C 7.17578 6.02865 6.91276 6.07812 6.62109 6.07812C 6.31641 6.07812 6.04167 6.02214 5.79688 5.91016C 5.55208 5.79557 5.34375 5.63802 5.17188 5.4375C 5.0026 5.23698 4.87109 5 4.77734 4.72656C 4.6862 4.45052 4.64062 4.14974 4.64062 3.82422L 4.64062 3.40625C 4.64062 2.95573 4.70182 2.53906 4.82422 2.15625C 4.94661 1.77083 5.12891 1.4388 5.37109 1.16016C 5.61328 0.878906 5.91406 0.660156 6.27344 0.503906C 6.63281 0.345052 7.04818 0.265625 7.51953 0.265625L 7.66406 0.265625ZM 6.58594 3.07812C 6.39062 3.07812 6.21745 3.13021 6.06641 3.23438C 5.91797 3.33854 5.80599 3.47266 5.73047 3.63672L 5.73047 3.95703C 5.73047 4.16536 5.7513 4.34766 5.79297 4.50391C 5.83724 4.66016 5.89844 4.79036 5.97656 4.89453C 6.05469 4.99609 6.14714 5.07292 6.25391 5.125C 6.36068 5.17708 6.47656 5.20312 6.60156 5.20312C 6.72917 5.20312 6.84505 5.17708 6.94922 5.125C 7.05339 5.07031 7.14193 4.99609 7.21484 4.90234C 7.28776 4.80859 7.34375 4.69792 7.38281 4.57031C 7.42188 4.4401 7.44141 4.29818 7.44141 4.14453C 7.44141 3.99089 7.42188 3.84896 7.38281 3.71875C 7.34375 3.58854 7.28776 3.47656 7.21484 3.38281C 7.14193 3.28646 7.05208 3.21224 6.94531 3.16016C 6.84115 3.10547 6.72135 3.07812 6.58594 3.07812Z"/>
<path id="path2_fill" d="M 12.7578 3.88672L 13.418 3.88672L 13.418 4.76562L 12.7578 4.76562L 12.7578 6L 11.6719 6L 11.6719 4.76562L 9.30859 4.76562L 9.26562 4.08594L 11.6562 0.3125L 12.7578 0.3125L 12.7578 3.88672ZM 10.332 3.88672L 11.6719 3.88672L 11.6719 1.77344L 11.5664 1.96094L 10.332 3.88672Z"/>
</defs>
</svg>
