<svg width="64" height="64" viewBox="0 0 64 64" version="1.1" xmlns="http://www.w3.org/2000/svg" xmlns:xlink="http://www.w3.org/1999/xlink">
<title>Frame 4</title>
<desc>Created using Figma</desc>
<g id="Canvas" transform="matrix(4 0 0 4 -1088 -160)">
<clipPath id="clip-0" clip-rule="evenodd">
<path d="M 272 40L 288 40L 288 56L 272 56L 272 40Z" fill="#FFFFFF"/>
</clipPath>
<g id="Frame 4" clip-path="url(#clip-0)">
<path d="M 272 40L 288 40L 288 56L 272 56L 272 40Z" fill="#FFFFFF"/>
<g id="b64">
<use xlink:href="#path0_fill" transform="translate(272 40)"/>
</g>
</g>
</g>
<defs>
<path id="path0_fill" d="M 5.15234 8.92969C 5.15234 9.24479 5.11719 9.53385 5.04688 9.79688C 4.97917 10.0599 4.8763 10.2865 4.73828 10.4766C 4.60026 10.6667 4.42839 10.8151 4.22266 10.9219C 4.01693 11.026 3.77734 11.0781 3.50391 11.0781C 3.25651 11.0781 3.04167 11.0326 2.85938 10.9414C 2.67969 10.8477 2.52474 10.7174 2.39453 10.5508L 2.34375 11L 1.36719 11L 1.36719 5L 2.45312 5L 2.45312 7.15625C 2.57812 7.01042 2.72526 6.89714 2.89453 6.81641C 3.06641 6.73568 3.26693 6.69531 3.49609 6.69531C 3.77214 6.69531 4.01302 6.7487 4.21875 6.85547C 4.42708 6.96224 4.60026 7.11068 4.73828 7.30078C 4.8763 7.49089 4.97917 7.71875 5.04688 7.98438C 5.11719 8.2474 5.15234 8.53516 5.15234 8.84766L 5.15234 8.92969ZM 4.06641 8.84766C 4.06641 8.67578 4.05339 8.51302 4.02734 8.35938C 4.0013 8.20573 3.95573 8.07161 3.89062 7.95703C 3.82812 7.83984 3.74219 7.7474 3.63281 7.67969C 3.52344 7.61198 3.38672 7.57812 3.22266 7.57812C 3.02474 7.57812 2.86328 7.61979 2.73828 7.70312C 2.61589 7.78646 2.52083 7.90104 2.45312 8.04688L 2.45312 9.73047C 2.52083 9.8763 2.61589 9.99089 2.73828 10.0742C 2.86328 10.1576 3.02734 10.1992 3.23047 10.1992C 3.39453 10.1992 3.52995 10.168 3.63672 10.1055C 3.74349 10.0404 3.82812 9.95182 3.89062 9.83984C 3.95573 9.72526 4.0013 9.59115 4.02734 9.4375C 4.05339 9.28125 4.06641 9.11198 4.06641 8.92969L 4.06641 8.84766ZM 9.03125 5.26562L 9.03125 6.16797L 8.96875 6.16797C 8.68229 6.16797 8.42839 6.20573 8.20703 6.28125C 7.98828 6.35677 7.80078 6.46354 7.64453 6.60156C 7.49089 6.73958 7.36849 6.90495 7.27734 7.09766C 7.1888 7.29036 7.13281 7.50521 7.10938 7.74219C 7.16927 7.67708 7.23828 7.61328 7.31641 7.55078C 7.39453 7.48568 7.48177 7.42839 7.57812 7.37891C 7.67708 7.32682 7.78385 7.28516 7.89844 7.25391C 8.01302 7.22266 8.13672 7.20703 8.26953 7.20703C 8.54036 7.20703 8.77604 7.25911 8.97656 7.36328C 9.17969 7.46484 9.34896 7.60417 9.48438 7.78125C 9.61979 7.95573 9.72005 8.16016 9.78516 8.39453C 9.85286 8.6263 9.88672 8.87109 9.88672 9.12891C 9.88672 9.40495 9.84245 9.66146 9.75391 9.89844C 9.66536 10.1354 9.53906 10.3411 9.375 10.5156C 9.21094 10.6901 9.01172 10.8281 8.77734 10.9297C 8.54297 11.0286 8.27995 11.0781 7.98828 11.0781C 7.68359 11.0781 7.40885 11.0221 7.16406 10.9102C 6.91927 10.7956 6.71094 10.638 6.53906 10.4375C 6.36979 10.237 6.23828 10 6.14453 9.72656C 6.05339 9.45052 6.00781 9.14974 6.00781 8.82422L 6.00781 8.40625C 6.00781 7.95573 6.06901 7.53906 6.19141 7.15625C 6.3138 6.77083 6.49609 6.4388 6.73828 6.16016C 6.98047 5.87891 7.28125 5.66016 7.64062 5.50391C 8 5.34505 8.41536 5.26562 8.88672 5.26562L 9.03125 5.26562ZM 7.95312 8.07812C 7.75781 8.07812 7.58464 8.13021 7.43359 8.23438C 7.28516 8.33854 7.17318 8.47266 7.09766 8.63672L 7.09766 8.95703C 7.09766 9.16536 7.11849 9.34766 7.16016 9.50391C 7.20443 9.66016 7.26562 9.79036 7.34375 9.89453C 7.42188 9.99609 7.51432 10.0729 7.62109 10.125C 7.72786 10.1771 7.84375 10.2031 7.96875 10.2031C 8.09635 10.2031 8.21224 10.1771 8.31641 10.125C 8.42057 10.0703 8.50911 9.99609 8.58203 9.90234C 8.65495 9.80859 8.71094 9.69792 8.75 9.57031C 8.78906 9.4401 8.80859 9.29818 8.80859 9.14453C 8.80859 8.99089 8.78906 8.84896 8.75 8.71875C 8.71094 8.58854 8.65495 8.47656 8.58203 8.38281C 8.50911 8.28646 8.41927 8.21224 8.3125 8.16016C 8.20833 8.10547 8.08854 8.07812 7.95312 8.07812ZM 14.125 8.88672L 14.7852 8.88672L 14.7852 9.76562L 14.125 9.76562L 14.125 11L 13.0391 11L 13.0391 9.76562L 10.6758 9.76562L 10.6328 9.08594L 13.0234 5.3125L 14.125 5.3125L 14.125 8.88672ZM 11.6992 8.88672L 13.0391 8.88672L 13.0391 6.77344L 12.9336 6.96094L 11.6992 8.88672Z"/>
</defs>
</svg>
