<svg width="64" height="64" viewBox="0 0 64 64" version="1.1" xmlns="http://www.w3.org/2000/svg" xmlns:xlink="http://www.w3.org/1999/xlink">
<title>Frame 2.1</title>
<desc>Created using Figma</desc>
<g id="Canvas" transform="matrix(4 0 0 4 -1088 -80)">
<clipPath id="clip-0" clip-rule="evenodd">
<path d="M 272 20L 288 20L 288 36L 272 36L 272 20Z" fill="#FFFFFF"/>
</clipPath>
<g id="Frame 2.1" clip-path="url(#clip-0)">
<path d="M 272 20L 288 20L 288 36L 272 36L 272 20Z" fill="#FFFFFF"/>
<g id="Vector">
<use xlink:href="#path0_fill" transform="translate(272.5 23.75)"/>
<use xlink:href="#path1_fill" transform="translate(272.5 23.75)"/>
<use xlink:href="#path2_fill" transform="translate(272.5 23.75)"/>
<use xlink:href="#path3_fill" transform="translate(272.5 23.75)"/>
<use xlink:href="#path4_fill" transform="translate(272.5 23.75)"/>
<use xlink:href="#path5_fill" transform="translate(272.5 23.75)"/>
<use xlink:href="#path6_fill" transform="translate(272.5 23.75)"/>
<use xlink:href="#path7_fill" transform="translate(272.5 23.75)"/>
</g>
</g>
</g>
<defs>
<path id="path0_fill" fill-rule="evenodd" d="M 4 3.75L 4 0.25L 5 0.25L 5 3.75L 4 3.75Z"/>
<path id="path1_fill" fill-rule="evenodd" d="M 7 3.75L 7 0.25L 8 0.25L 8 3.75L 7 3.75Z"/>
<path id="path2_fill" fill-rule="evenodd" d="M 9.45895 0.458945C 9.71663 0.201273 10.0874 0 10.5 0C 10.9126 0 11.2834 0.201274 11.5411 0.458946C 11.7987 0.716618 12 1.08738 12 1.5L 12 2.5C 12 2.91261 11.7987 3.28338 11.5411 3.54105C 11.2834 3.79873 10.9126 4 10.5 4C 10.0874 4 9.71662 3.79873 9.45895 3.54105C 9.20127 3.28338 9 2.91262 9 2.5L 9 1.50001C 9 1.08738 9.20128 0.716617 9.45895 0.458945ZM 10.1661 1.16605C 10.0487 1.28338 10 1.41262 10 1.49999L 10 2.5C 10 2.58738 10.0487 2.71662 10.1661 2.83395C 10.2834 2.95127 10.4126 3 10.5 3C 10.5874 3 10.7166 2.95127 10.8339 2.83395C 10.9513 2.71662 11 2.58739 11 2.5L 11 1.5C 11 1.41262 10.9513 1.28338 10.834 1.16605C 10.7166 1.04873 10.5874 1 10.5 1C 10.4126 1 10.2834 1.04873 10.1661 1.16605Z"/>
<path id="path3_fill" fill-rule="evenodd" d="M 0.458952 0.458945C 0.716625 0.201273 1.08739 0 1.5 0C 1.91262 0 2.28338 0.201274 2.54106 0.458946C 2.79873 0.716618 3 1.08738 3 1.5L 3 2.5C 3 2.91261 2.79873 3.28338 2.54105 3.54105C 2.28338 3.79873 1.91262 4 1.5 4C 1.08739 4 0.716622 3.79873 0.458948 3.54105C 0.201274 3.28338 0 2.91262 0 2.5L 4.58956e-06 1.50001C -9.53674e-07 1.08738 0.201278 0.716617 0.458952 0.458945ZM 1.16606 1.16605C 1.04873 1.28338 1 1.41262 1 1.49999L 1 2.5C 1 2.58738 1.04873 2.71662 1.16605 2.83395C 1.28338 2.95127 1.41262 3 1.5 3C 1.58739 3 1.71662 2.95127 1.83395 2.83395C 1.95127 2.71662 2 2.58739 2 2.5L 2 1.5C 2 1.41262 1.95128 1.28338 1.83395 1.16605C 1.71662 1.04873 1.58739 1 1.5 1C 1.41262 1 1.28338 1.04873 1.16606 1.16605Z"/>
<path id="path4_fill" fill-rule="evenodd" d="M 7 8.75L 7 5.25L 8 5.25L 8 8.75L 7 8.75Z"/>
<path id="path5_fill" fill-rule="evenodd" d="M 10 8.75L 10 5.25L 11 5.25L 11 8.75L 10 8.75Z"/>
<path id="path6_fill" fill-rule="evenodd" d="M 12.459 5.45895C 12.7166 5.20127 13.0874 5 13.5 5C 13.9126 5 14.2834 5.20127 14.5411 5.45895C 14.7987 5.71662 15 6.08738 15 6.5L 15 7.5C 15 7.91261 14.7987 8.28338 14.5411 8.54105C 14.2834 8.79873 13.9126 9 13.5 9C 13.0874 9 12.7166 8.79873 12.4589 8.54105C 12.2013 8.28338 12 7.91262 12 7.5L 12 6.50001C 12 6.08738 12.2013 5.71662 12.459 5.45895ZM 13.1661 6.16605C 13.0487 6.28338 13 6.41262 13 6.49999L 13 7.5C 13 7.58738 13.0487 7.71662 13.1661 7.83395C 13.2834 7.95127 13.4126 8 13.5 8C 13.5874 8 13.7166 7.95127 13.8339 7.83395C 13.9513 7.71662 14 7.58739 14 7.5L 14 6.5C 14 6.41262 13.9513 6.28338 13.834 6.16605C 13.7166 6.04873 13.5874 6 13.5 6C 13.4126 6 13.2834 6.04873 13.1661 6.16605Z"/>
<path id="path7_fill" fill-rule="evenodd" d="M 3.45895 5.45895C 3.71663 5.20127 4.08739 5 4.5 5C 4.91262 5 5.28338 5.20127 5.54106 5.45895C 5.79873 5.71662 6 6.08738 6 6.5L 6 7.5C 6 7.91261 5.79873 8.28338 5.54105 8.54105C 5.28338 8.79873 4.91262 9 4.5 9C 4.08739 9 3.71662 8.79873 3.45895 8.54105C 3.20127 8.28338 3 7.91262 3 7.5L 3 6.50001C 3 6.08738 3.20128 5.71662 3.45895 5.45895ZM 4.16606 6.16605C 4.04873 6.28338 4 6.41262 4 6.49999L 4 7.5C 4 7.58738 4.04873 7.71662 4.16605 7.83395C 4.28338 7.95127 4.41262 8 4.5 8C 4.58739 8 4.71662 7.95127 4.83395 7.83395C 4.95127 7.71662 5 7.58739 5 7.5L 5 6.5C 5 6.41262 4.95128 6.28338 4.83395 6.16605C 4.71662 6.04873 4.58739 6 4.5 6C 4.41262 6 4.28338 6.04873 4.16606 6.16605Z"/>
</defs>
</svg>
