<svg xmlns="http://www.w3.org/2000/svg" xmlns:xlink="http://www.w3.org/1999/xlink" width="128" height="128">
  <g fill="#000">
    <use xlink:href="#path0_fill"/>
    <use xlink:href="#path1_fill"/>
    <use xlink:href="#path2_fill"/>
    <use xlink:href="#path3_fill"/>
    <use xlink:href="#path4_fill"/>
    <use xlink:href="#path5_fill"/>
    <use xlink:href="#path6_fill"/>
    <use xlink:href="#path7_fill"/>
    <use xlink:href="#path8_fill"/>
    <use xlink:href="#path9_fill"/>
    <use xlink:href="#path10_fill"/>
  </g>
  <defs>
    <path id="path0_fill" d="M35.61 23.36c-.1 1.68-.47 3.19-1.1 4.53a10.42 10.42 0 0 1-6.18 5.63c-1.43.5-3.02.76-4.76.76-1.97 0-3.71-.36-5.24-1.08a10.89 10.89 0 0 1-3.84-3.04 13.99 13.99 0 0 1-2.38-4.72 20.95 20.95 0 0 1-.83-6.04v-4.48a20 20 0 0 1 .87-6.06c.58-1.84 1.4-3.4 2.47-4.72A11.03 11.03 0 0 1 18.5 1.1 11.7 11.7 0 0 1 23.62 0c1.83 0 3.45.26 4.87.78A10.3 10.3 0 0 1 32.16 3c1 .96 1.8 2.13 2.38 3.52.58 1.39.94 2.95 1.1 4.7h-6.41c-.06-1-.22-1.87-.46-2.62a4.65 4.65 0 0 0-1.03-1.85c-.44-.5-1-.88-1.7-1.12a6.74 6.74 0 0 0-2.42-.39 5 5 0 0 0-2.59.64 5.15 5.15 0 0 0-1.83 1.88 9.75 9.75 0 0 0-1.05 3.04 21.7 21.7 0 0 0-.34 4.07v4.53c0 3.28.45 5.7 1.37 7.28.93 1.57 2.4 2.36 4.4 2.36 1.67 0 3-.45 3.98-1.33.97-.9 1.51-2.35 1.62-4.35h6.43z"/>
    <path id="path1_fill" d="M57.7 8.58a16.84 16.84 0 0 1 4.65.62l-.94 6.34c-.84-.2-1.7-.35-2.59-.44-.87-.1-1.7-.16-2.5-.16-1.78 0-3.21.34-4.3 1.03a6.26 6.26 0 0 0-2.4 2.95V33.8h-6.36V9.04h5.93l.3 4.05c1-1.4 2.2-2.5 3.61-3.3a9.06 9.06 0 0 1 4.6-1.2z"/>
    <path id="path2_fill" d="M77.68 23.4l.73 2.66 6.6-17.02h7.02L79.47 37.5c-.28.63-.64 1.3-1.08 2.04a8.53 8.53 0 0 1-4.03 3.62 7.9 7.9 0 0 1-4.16.59 6 6 0 0 1-.76-.1 10.64 10.64 0 0 1-1.49-.32l.78-4.84a26.63 26.63 0 0 1 1.97.07c.5 0 .95-.16 1.33-.46.4-.3.73-.64 1-1 .28-.37.5-.71.67-1.02.17-.3.28-.45.34-.45l1.54-2.89-10.49-23.7h6.96l5.63 14.37z"/>
    <path id="path3_fill" d="M116.6 21.65c0 1.8-.22 3.47-.65 5a11.96 11.96 0 0 1-1.85 4.01 8.76 8.76 0 0 1-3.02 2.63 8.7 8.7 0 0 1-4.14.96c-1.33 0-2.5-.23-3.5-.68a7.98 7.98 0 0 1-2.64-1.92V43.3h-6.36V9.04h5.88l.23 2.42a8.07 8.07 0 0 1 2.7-2.12 8.24 8.24 0 0 1 3.64-.76c1.57 0 2.96.3 4.16.92a8.36 8.36 0 0 1 3.05 2.56c.82 1.1 1.44 2.42 1.85 3.98.43 1.54.64 3.25.64 5.13v.48zm-6.37-.48c0-1.04-.1-2.01-.3-2.91a6.96 6.96 0 0 0-.89-2.36 4.4 4.4 0 0 0-1.56-1.58 4.32 4.32 0 0 0-2.29-.57 5.1 5.1 0 0 0-2.74.67 4.37 4.37 0 0 0-1.65 1.83v10.34c.4.78.95 1.4 1.65 1.87.72.46 1.65.7 2.8.7a4.2 4.2 0 0 0 3.84-2.23c.4-.68.68-1.48.87-2.38.18-.91.27-1.88.27-2.9v-.48z"/>
    <path id="path4_fill" d="M26.87 99.44H16.6v28.08h-6.45V99.44H0V94.2h26.87v5.24z"/>
    <path id="path5_fill" d="M27.55 114.91c0-1.8.26-3.46.78-4.99a10.68 10.68 0 0 1 5.93-6.66c1.44-.64 3.1-.96 4.96-.96 1.86 0 3.52.32 4.97.97a10.4 10.4 0 0 1 3.66 2.65 11.4 11.4 0 0 1 2.29 4c.52 1.53.78 3.2.78 5v.47c0 1.82-.26 3.5-.78 5.04a11.63 11.63 0 0 1-2.27 3.98 10.4 10.4 0 0 1-3.66 2.65c-1.45.63-3.1.94-4.94.94a12.6 12.6 0 0 1-5-.94 10.64 10.64 0 0 1-5.94-6.63 15.69 15.69 0 0 1-.78-5.04v-.48zm6.36.48c0 1.04.1 2.02.3 2.93.2.9.51 1.7.94 2.38.42.67.97 1.2 1.65 1.6.68.4 1.5.6 2.47.6a4.6 4.6 0 0 0 4.03-2.2c.42-.69.74-1.48.93-2.38.2-.91.3-1.89.3-2.93v-.48c0-1-.1-1.96-.3-2.86-.2-.9-.5-1.7-.93-2.38a4.6 4.6 0 0 0-1.63-1.62 4.7 4.7 0 0 0-2.45-.6c-.94 0-1.75.2-2.42.6a4.8 4.8 0 0 0-1.65 1.62 7.53 7.53 0 0 0-.94 2.38c-.2.9-.3 1.86-.3 2.86v.48z"/>
    <path id="path6_fill" d="M53.36 114.91c0-1.8.26-3.46.78-4.99a10.68 10.68 0 0 1 5.93-6.66c1.44-.64 3.1-.96 4.96-.96 1.86 0 3.52.32 4.97.97a10.4 10.4 0 0 1 3.66 2.65 11.4 11.4 0 0 1 2.29 4c.52 1.53.78 3.2.78 5v.47c0 1.82-.26 3.5-.78 5.04a11.63 11.63 0 0 1-2.27 3.98 10.4 10.4 0 0 1-3.66 2.65c-1.45.63-3.1.94-4.94.94a12.6 12.6 0 0 1-5-.94 10.64 10.64 0 0 1-5.94-6.63 15.69 15.69 0 0 1-.78-5.04v-.48zm6.36.48c0 1.04.1 2.02.3 2.93.2.9.5 1.7.94 2.38.42.67.97 1.2 1.64 1.6.7.4 1.51.6 2.48.6.93 0 1.73-.2 2.4-.6.67-.4 1.21-.93 1.62-1.6.43-.69.74-1.48.94-2.38.2-.91.3-1.89.3-2.93v-.48c0-1-.1-1.96-.3-2.86-.2-.9-.5-1.7-.94-2.38a4.6 4.6 0 0 0-1.62-1.62 4.7 4.7 0 0 0-2.45-.6c-.95 0-1.75.2-2.43.6a4.8 4.8 0 0 0-1.64 1.62 7.52 7.52 0 0 0-.94 2.38c-.2.9-.3 1.86-.3 2.86v.48z"/>
    <path id="path7_fill" d="M81.36 92.37h13.85v29.98h7.1v5.17H81.36v-5.17h7.42V97.57h-7.42v-5.2z"/>
    <path id="path8_fill" d="M121.82 120.72c0-.38-.1-.71-.27-1a2.29 2.29 0 0 0-.94-.8 7.84 7.84 0 0 0-1.79-.71c-.75-.22-1.7-.43-2.84-.64a28.97 28.97 0 0 1-3.98-1.08 13.17 13.17 0 0 1-3.07-1.58 7.46 7.46 0 0 1-2.01-2.15 5.43 5.43 0 0 1-.71-2.8c0-1.01.25-1.99.73-2.92a7.43 7.43 0 0 1 2.1-2.45 10.7 10.7 0 0 1 3.35-1.67 14.8 14.8 0 0 1 4.44-.62c1.73 0 3.27.21 4.65.62 1.37.4 2.53.95 3.48 1.67a6.83 6.83 0 0 1 2.95 5.7h-6.36a3 3 0 0 0-1.17-2.4c-.78-.66-1.96-.99-3.55-.99-1.48 0-2.6.27-3.36.8-.75.54-1.13 1.2-1.13 1.97 0 .37.08.71.23 1.03.16.3.42.59.8.85.4.24.94.47 1.6.69.68.2 1.53.37 2.57.52 1.5.24 2.88.56 4.17.94 1.28.38 2.38.88 3.32 1.49a6.7 6.7 0 0 1 2.17 2.2c.53.85.8 1.87.8 3.06a6 6 0 0 1-.8 3.04 7.2 7.2 0 0 1-2.24 2.38 11.4 11.4 0 0 1-3.5 1.58c-1.38.37-2.91.55-4.6.55-1.87 0-3.52-.24-4.95-.73a11.63 11.63 0 0 1-3.57-1.9 8.42 8.42 0 0 1-2.2-2.68 6.8 6.8 0 0 1-.73-3.02h6.06a3.55 3.55 0 0 0 1.79 2.9c.5.3 1.08.51 1.72.65.65.14 1.32.2 2.01.2 1.57 0 2.77-.25 3.6-.75.82-.5 1.23-1.15 1.23-1.95z"/>
    <path id="path9_fill" fill-rule="evenodd" d="M95.15 71.87h19.53v5.86H95.16v-5.86z"/>
    <path id="path10_fill" fill-rule="evenodd" d="M13.12 65.04A15.62 15.62 0 0 1 44.1 62.1h70.59v5.86h-70.6a15.63 15.63 0 0 1-30.97-2.93zm15.63 9.76a9.76 9.76 0 1 0 0-19.53 9.76 9.76 0 0 0 0 19.53z"/>
  </defs>
</svg>
