<svg width="64" height="64" viewBox="0 0 64 64" version="1.1" xmlns="http://www.w3.org/2000/svg" xmlns:xlink="http://www.w3.org/1999/xlink">
<title>Frame 2.3</title>
<desc>Created using Figma</desc>
<g id="Canvas" transform="matrix(4 0 0 4 -1168 0)">
<clipPath id="clip-0" clip-rule="evenodd">
<path d="M 292 0L 308 0L 308 16L 292 16L 292 0Z" fill="#FFFFFF"/>
</clipPath>
<g id="Frame 2.3" clip-path="url(#clip-0)">
<path d="M 292 0L 308 0L 308 16L 292 16L 292 0Z" fill="#FFFFFF"/>
<g id="Vector">
<use xlink:href="#path0_fill" transform="translate(293.393 1.93782)"/>
<use xlink:href="#path1_fill" transform="translate(293.393 1.93782)"/>
<use xlink:href="#path2_fill" transform="translate(293.393 1.93782)"/>
</g>
</g>
</g>
<defs>
<path id="path0_fill" d="M 8.72926 2.38714C 6.40422 1.04478 3.41824 1.86386 2.05988 4.21661C 0.701519 6.56937 1.48516 9.56484 3.8102 10.9072C 6.13523 12.2496 9.12121 11.4305 10.4796 9.07772L 11.6824 9.77217C 9.93592 12.7971 6.0968 13.8502 3.10747 12.1244C 0.118143 10.3985 -0.889397 6.54714 0.857068 3.52217C 2.60353 0.497203 6.44265 -0.555906 9.43198 1.16998L 10.1075 0L 11.2514 3.03185L 7.93506 3.76273L 8.72926 2.38714Z"/>
<path id="path1_fill" fill-rule="evenodd" d="M 3.90746 9.06218L 3.90746 4.56218L 5.20346 4.56218L 5.20346 9.06218L 3.90746 9.06218Z"/>
<path id="path2_fill" fill-rule="evenodd" d="M 6.49946 5.95503C 6.49946 5.18578 7.12805 4.56218 7.90346 4.56218C 8.67887 4.56218 9.30746 5.18578 9.30746 5.95503C 9.30746 6.27829 9.19646 6.57583 9.01021 6.81218C 9.19646 7.04853 9.30746 7.34606 9.30746 7.66932C 9.30746 8.43857 8.67887 9.06218 7.90346 9.06218C 7.12805 9.06218 6.49946 8.43857 6.49946 7.66932L 7.57946 7.66932C 7.57946 7.84684 7.72452 7.99075 7.90346 7.99075C 8.0824 7.99075 8.22746 7.84684 8.22746 7.66932C 8.22746 7.4918 8.0824 7.34789 7.90346 7.34789L 7.47146 7.34789L 7.47146 6.27646L 7.90346 6.27646C 8.0824 6.27646 8.22746 6.13255 8.22746 5.95503C 8.22746 5.77751 8.0824 5.63361 7.90346 5.63361C 7.72452 5.63361 7.57946 5.77751 7.57946 5.95503L 6.49946 5.95503Z"/>
</defs>
</svg>
